<svg width="128" height="128" viewBox="0 0 128 128" fill="none" xmlns="http://www.w3.org/2000/svg">
  <!-- 笔记本外框 -->
  <rect x="20" y="16" width="80" height="96" rx="8" ry="8" fill="#667eea" stroke="#4c63d2" stroke-width="2"/>
  
  <!-- 螺旋绑定 -->
  <rect x="16" y="20" width="8" height="8" rx="4" fill="#4c63d2"/>
  <rect x="16" y="32" width="8" height="8" rx="4" fill="#4c63d2"/>
  <rect x="16" y="44" width="8" height="8" rx="4" fill="#4c63d2"/>
  <rect x="16" y="56" width="8" height="8" rx="4" fill="#4c63d2"/>
  <rect x="16" y="68" width="8" height="8" rx="4" fill="#4c63d2"/>
  <rect x="16" y="80" width="8" height="8" rx="4" fill="#4c63d2"/>
  <rect x="16" y="92" width="8" height="8" rx="4" fill="#4c63d2"/>
  <rect x="16" y="104" width="8" height="8" rx="4" fill="#4c63d2"/>
  
  <!-- 内页 -->
  <rect x="28" y="24" width="64" height="80" rx="4" fill="#ffffff"/>
  
  <!-- 页面线条 -->
  <line x1="36" y1="36" x2="76" y2="36" stroke="#e5e7eb" stroke-width="2"/>
  <line x1="36" y1="44" x2="84" y2="44" stroke="#e5e7eb" stroke-width="2"/>
  <line x1="36" y1="52" x2="72" y2="52" stroke="#e5e7eb" stroke-width="2"/>
  
  <!-- 复选框和文字 -->
  <rect x="36" y="60" width="8" height="8" rx="2" fill="#4ade80" stroke="#22c55e" stroke-width="1"/>
  <path d="M38.5 63.5L40 65L42.5 62" stroke="#ffffff" stroke-width="1.5" fill="none" stroke-linecap="round"/>
  <line x1="48" y1="64" x2="76" y2="64" stroke="#4ade80" stroke-width="2"/>
  
  <rect x="36" y="72" width="8" height="8" rx="2" fill="none" stroke="#e5e7eb" stroke-width="2"/>
  <line x1="48" y1="76" x2="80" y2="76" stroke="#9ca3af" stroke-width="2"/>
  
  <rect x="36" y="84" width="8" height="8" rx="2" fill="none" stroke="#e5e7eb" stroke-width="2"/>
  <line x1="48" y1="88" x2="68" y2="88" stroke="#9ca3af" stroke-width="2"/>
  
  <!-- 笔 -->
  <circle cx="96" cy="32" r="16" fill="#fbbf24"/>
  <rect x="88" y="24" width="16" height="16" rx="8" fill="#f59e0b"/>
  <circle cx="96" cy="32" r="4" fill="#ffffff"/>
  <path d="M94 30L98 30M96 28L96 36" stroke="#f59e0b" stroke-width="1.5" stroke-linecap="round"/>
</svg>
