<svg xmlns="http://www.w3.org/2000/svg" width="128" height="128" viewBox="0 0 128 128" fill="none">
  <rect width="128" height="128" rx="16" fill="#FFEDD5"/>
  <path d="M32 36h64v8H32z" fill="#F97316"/>
  <path d="M32 56h64v8H32z" fill="#FB923C"/>
  <path d="M32 76h64v6H32z" fill="#FDBA74"/>
  <path d="M38 28c0-3.314 2.686-6 6-6h40c3.314 0 6 2.686 6 6v12H38V28z" fill="#FFEDD5" opacity="0.2"/>
  <path d="M86 26H42a4 4 0 00-4 4v12h52V30a4 4 0 00-4-4z" stroke="#C2410C" stroke-width="2" stroke-linecap="round" stroke-linejoin="round" fill="none"/>
  <path d="M46 92v-44" stroke="#C2410C" stroke-width="2" stroke-linecap="round"/>
  <path d="M82 92V58" stroke="#C2410C" stroke-width="2" stroke-linecap="round"/>
  <circle cx="48" cy="96" r="4" fill="#C2410C"/>
  <circle cx="80" cy="96" r="4" fill="#C2410C"/>
  <text x="64" y="68" text-anchor="middle" fill="#7C2D12" font-family="sans-serif" font-size="10">小说</text>
</svg>


