<svg width="128" height="128" viewBox="0 0 128 128" fill="none" xmlns="http://www.w3.org/2000/svg">
  <circle cx="64" cy="64" r="56" fill="#1DA1F2"/>
  <path d="M96 40c-2.4 1.1-5 1.8-7.7 2.1 2.8-1.7 4.9-4.3 5.9-7.5-2.6 1.5-5.5 2.6-8.6 3.2-2.5-2.6-6-4.3-9.9-4.3-7.5 0-13.5 6.1-13.5 13.5 0 1.1.1 2.1.3 3.1-11.2-.6-21.2-5.9-27.8-14.1-1.2 2-1.8 4.3-1.8 6.8 0 4.7 2.4 8.8 6 11.2-2.2-.1-4.3-.7-6.1-1.7v.2c0 6.5 4.6 12 10.7 13.2-1.1.3-2.3.5-3.5.5-.9 0-1.7-.1-2.5-.2 1.7 5.2 6.5 9 12.3 9.1-4.5 3.5-10.2 5.6-16.4 5.6-1.1 0-2.1-.1-3.1-.2 5.8 3.7 12.7 5.9 20.1 5.9 24.1 0 37.3-20 37.3-37.3 0-.6 0-1.1 0-1.7 2.6-1.8 4.8-4.1 6.6-6.7z" fill="white"/>
</svg>