<svg width="128" height="128" viewBox="0 0 128 128" fill="none" xmlns="http://www.w3.org/2000/svg">
  <circle cx="64" cy="64" r="56" fill="#24292e"/>
  <path d="M64 16C35.8 16 13.3 38.5 13.3 66.7c0 22.4 14.5 41.4 34.7 48.1 2.5.5 3.4-1.1 3.4-2.4 0-1.2 0-4.4-.1-8.7-14.1 3.1-17.1-6.8-17.1-6.8-2.3-5.8-5.6-7.4-5.6-7.4-4.6-3.1.3-3.1.3-3.1 5.1.4 7.8 5.2 7.8 5.2 4.5 7.7 11.8 5.5 14.7 4.2.5-3.3 1.8-5.5 3.2-6.8-11.2-1.3-23-5.6-23-24.9 0-5.5 2-10 5.2-13.5-.5-1.3-2.3-6.4.5-13.4 0 0 4.2-1.4 13.8 5.1 4-1.1 8.3-1.7 12.6-1.7s8.6.6 12.6 1.7c9.6-6.5 13.8-5.1 13.8-5.1 2.8 7 1 12.1.5 13.4 3.2 3.5 5.2 8 5.2 13.5 0 19.4-11.8 23.6-23.1 24.9 1.8 1.6 3.4 4.7 3.4 9.4 0 6.8-.1 12.3-.1 13.9 0 1.4.9 2.9 3.4 2.4 20.2-6.7 34.7-25.7 34.7-48.1C114.7 38.5 92.2 16 64 16z" fill="white"/>
</svg>